<svg width="52" height="52" viewBox="0 0 52 52" fill="none" xmlns="http://www.w3.org/2000/svg">
<g clip-path="url(#clip0_71_80)">
<path d="M0 45.5C0 47.2239 0.68482 48.8772 1.90381 50.0962C3.12279 51.3152 4.77609 52 6.5 52H45.5C47.2239 52 48.8772 51.3152 50.0962 50.0962C51.3152 48.8772 52 47.2239 52 45.5V6.5C52 4.77609 51.3152 3.12279 50.0962 1.90381C48.8772 0.68482 47.2239 0 45.5 0L6.5 0C4.77609 0 3.12279 0.68482 1.90381 1.90381C0.68482 3.12279 0 4.77609 0 6.5L0 45.5ZM14.625 24.375H33.4523L26.4745 17.4005C26.1694 17.0954 25.9979 16.6815 25.9979 16.25C25.9979 15.8185 26.1694 15.4046 26.4745 15.0995C26.7796 14.7944 27.1935 14.6229 27.625 14.6229C28.0565 14.6229 28.4704 14.7944 28.7755 15.0995L38.5255 24.8495C38.6768 25.0004 38.7969 25.1798 38.8788 25.3772C38.9607 25.5746 39.0029 25.7863 39.0029 26C39.0029 26.2137 38.9607 26.4254 38.8788 26.6228C38.7969 26.8202 38.6768 26.9996 38.5255 27.1505L28.7755 36.9005C28.4704 37.2056 28.0565 37.3771 27.625 37.3771C27.1935 37.3771 26.7796 37.2056 26.4745 36.9005C26.1694 36.5954 25.9979 36.1815 25.9979 35.75C25.9979 35.3185 26.1694 34.9046 26.4745 34.5995L33.4523 27.625H14.625C14.194 27.625 13.7807 27.4538 13.476 27.149C13.1712 26.8443 13 26.431 13 26C13 25.569 13.1712 25.1557 13.476 24.851C13.7807 24.5462 14.194 24.375 14.625 24.375V24.375Z" fill="#053255"/>
</g>
<defs>
<clipPath id="clip0_71_80">
<rect width="52" height="52" fill="white"/>
</clipPath>
</defs>
</svg>
