<svg width="123" height="118" viewBox="0 0 123 118" fill="none" xmlns="http://www.w3.org/2000/svg">
<path d="M117.87 59C117.87 88.9467 92.6471 113.5 61.1851 113.5C29.7232 113.5 4.5 88.9467 4.5 59C4.5 29.0533 29.7232 4.5 61.1851 4.5C92.6471 4.5 117.87 29.0533 117.87 59Z" stroke="black" stroke-width="9"/>
<path d="M45.7862 81V73.4148L61.7024 59.4801C62.8956 58.4006 63.9112 57.4134 64.7492 56.5185C65.5873 55.6094 66.2265 54.7003 66.6669 53.7912C67.1072 52.8679 67.3274 51.8665 67.3274 50.7869C67.3274 49.5795 67.0646 48.5497 66.539 47.6974C66.0135 46.831 65.289 46.1634 64.3657 45.6946C63.4424 45.2259 62.3842 44.9915 61.191 44.9915C59.9836 44.9915 58.9254 45.2401 58.0163 45.7372C57.1072 46.2202 56.397 46.9233 55.8856 47.8466C55.3885 48.7699 55.1399 49.892 55.1399 51.2131H45.147C45.147 48.2443 45.8146 45.6804 47.1498 43.5213C48.485 41.3622 50.36 39.7003 52.7748 38.5355C55.2038 37.3565 58.0234 36.767 61.2336 36.767C64.5433 36.767 67.4197 37.321 69.8629 38.429C72.3061 39.5369 74.1953 41.0852 75.5305 43.0739C76.8799 45.0483 77.5546 47.3423 77.5546 49.956C77.5546 51.6179 77.2208 53.2656 76.5532 54.8991C75.8856 56.5327 74.6853 58.3366 72.9524 60.3111C71.2336 62.2855 68.7904 64.6506 65.6228 67.4062L60.4027 72.2216V72.4986H78.0873V81H45.7862Z" fill="black"/>
</svg>
