<svg width="123" height="118" viewBox="0 0 123 118" fill="none" xmlns="http://www.w3.org/2000/svg">
<path d="M117.87 59C117.87 88.9467 92.6471 113.5 61.1851 113.5C29.7232 113.5 4.5 88.9467 4.5 59C4.5 29.0533 29.7232 4.5 61.1851 4.5C92.6471 4.5 117.87 29.0533 117.87 59Z" stroke="black" stroke-width="9"/>
<path d="M61.3056 81.5966C57.9817 81.5966 55.0343 81.0284 52.4632 79.892C49.9064 78.7415 47.8894 77.1577 46.4121 75.1406C44.9348 73.1236 44.182 70.8011 44.1536 68.1733H54.7644C54.807 69.125 55.1124 69.9702 55.6806 70.7088C56.2488 71.4332 57.0229 72.0014 58.003 72.4134C58.9831 72.8253 60.0982 73.0312 61.3482 73.0312C62.5982 73.0312 63.699 72.8111 64.6507 72.3707C65.6167 71.9162 66.3695 71.2983 66.9093 70.517C67.449 69.7216 67.7118 68.8125 67.6976 67.7898C67.7118 66.767 67.4206 65.858 66.824 65.0625C66.2275 64.267 65.3823 63.6491 64.2885 63.2088C63.209 62.7685 61.9306 62.5483 60.4533 62.5483H56.2132V55.0483H60.4533C61.7459 55.0483 62.8823 54.8352 63.8624 54.4091C64.8567 53.983 65.6309 53.3864 66.1848 52.6193C66.7388 51.8381 67.0087 50.9432 66.9945 49.9347C67.0087 48.9545 66.7743 48.0952 66.2914 47.3565C65.8226 46.6037 65.1621 46.0213 64.3098 45.6094C63.4718 45.1974 62.4988 44.9915 61.3908 44.9915C60.226 44.9915 59.1678 45.1974 58.2161 45.6094C57.2786 46.0213 56.5328 46.6037 55.9789 47.3565C55.4249 48.1094 55.1337 48.983 55.1053 49.9773H45.0272C45.0556 47.3778 45.78 45.0909 47.2005 43.1165C48.6209 41.1278 50.5527 39.5724 52.9959 38.4503C55.4533 37.3281 58.2516 36.767 61.3908 36.767C64.5158 36.767 67.2644 37.3139 69.6365 38.4077C72.0087 39.5014 73.8553 40.9929 75.1763 42.8821C76.4973 44.7571 77.1578 46.8807 77.1578 49.2528C77.1721 51.7102 76.3695 53.7344 74.7502 55.3253C73.1451 56.9162 71.0783 57.8963 68.5499 58.2656V58.6065C71.9306 59.0043 74.4803 60.098 76.199 61.8878C77.932 63.6776 78.7914 65.9148 78.7772 68.5994C78.7772 71.1278 78.0314 73.3722 76.54 75.3324C75.0627 77.2784 73.003 78.8125 70.361 79.9347C67.7331 81.0426 64.7147 81.5966 61.3056 81.5966Z" fill="black"/>
</svg>
