<svg width="123" height="118" viewBox="0 0 123 118" fill="none" xmlns="http://www.w3.org/2000/svg">
<path d="M117.87 59C117.87 88.9467 92.6471 113.5 61.1851 113.5C29.7232 113.5 4.5 88.9467 4.5 59C4.5 29.0533 29.7232 4.5 61.1851 4.5C92.6471 4.5 117.87 29.0533 117.87 59Z" stroke="white" stroke-width="9"/>
<path d="M61.2051 81.5966C58.0233 81.5966 55.1966 81.0213 52.725 79.8707C50.2534 78.7202 48.3002 77.1364 46.8656 75.1193C45.4451 73.1023 44.7065 70.7869 44.6497 68.1733H54.877C54.9622 69.7784 55.6156 71.071 56.8372 72.0511C58.0588 73.017 59.5147 73.5 61.2051 73.5C62.5261 73.5 63.698 73.2088 64.7207 72.6264C65.7434 72.044 66.546 71.2273 67.1284 70.1761C67.7108 69.1108 67.9949 67.8892 67.9806 66.5114C67.9949 65.1051 67.7037 63.8764 67.1071 62.8253C66.5247 61.7741 65.715 60.9574 64.6781 60.375C63.6554 59.7784 62.4764 59.4801 61.1412 59.4801C59.877 59.4659 58.6767 59.7429 57.5403 60.3111C56.4181 60.8793 55.5659 61.6534 54.9835 62.6335L45.6724 60.8864L47.5687 37.3636H75.5659V45.8651H56.2406L55.2392 56.1562H55.4949C56.2193 54.9489 57.3841 53.9545 58.9892 53.1733C60.6085 52.3778 62.448 51.9801 64.5076 51.9801C67.1213 51.9801 69.4508 52.5909 71.4963 53.8125C73.5559 55.0199 75.1752 56.696 76.3542 58.8409C77.5474 60.9858 78.144 63.4432 78.144 66.2131C78.144 69.2102 77.4338 71.8665 76.0133 74.1818C74.6071 76.4972 72.6326 78.3153 70.09 79.6364C67.5616 80.9432 64.6 81.5966 61.2051 81.5966Z" fill="white"/>
</svg>
